<?xml version="1.0" encoding="UTF-8"?>
<svg xmlns="http://www.w3.org/2000/svg" width="157" height="120" viewBox="0 0 157 120" fill="none">
  <path d="M156.452 60.0935L149.879 49.9906L112.622 22.3719C112.622 22.3719 72.3003 19.0494 71.2766 18.7913C70.253 18.5332 45.7562 19.301 45.7562 19.301L30.9551 30.0426L8.49924 47.4293L0.902344 60.0935L8.24171 71.4739L58.0078 106.763L117.727 100.88L146.054 74.0287L156.458 60.0935L156.452 60.0935Z" fill="white" stroke="black" stroke-width="0.541922" stroke-linecap="round" stroke-linejoin="round"></path>
  <path d="M78.6835 99.221C100.248 99.221 117.73 81.7028 117.73 60.0929C117.73 38.4831 100.248 20.9648 78.6835 20.9648C57.1185 20.9648 39.6367 38.4831 39.6367 60.0929C39.6367 81.7028 57.1185 99.221 78.6835 99.221Z" fill="#BFE3E8" stroke="black" stroke-width="0.645146" stroke-linecap="round" stroke-linejoin="round"></path>
  <path d="M78.6785 84.3368C92.0406 84.3368 102.873 73.4821 102.873 60.0922C102.873 46.7023 92.0406 35.8477 78.6785 35.8477C65.3165 35.8477 54.4844 46.7023 54.4844 60.0922C54.4844 73.4821 65.3165 84.3368 78.6785 84.3368Z" fill="black"></path>
  <path d="M78.6818 60.0898L39.7188 60.0898" stroke="black" stroke-width="0.645146" stroke-linecap="round" stroke-linejoin="round"></path>
  <path d="M78.6785 60.0898L41.6211 72.1541" stroke="black" stroke-width="0.645146" stroke-linecap="round" stroke-linejoin="round"></path>
  <path d="M78.6808 60.0898L47.1602 83.0377" stroke="black" stroke-width="0.645146" stroke-linecap="round" stroke-linejoin="round"></path>
  <path d="M78.6814 60.0898L55.7813 91.6697" stroke="black" stroke-width="0.645146" stroke-linecap="round" stroke-linejoin="round"></path>
  <path d="M78.6837 60.0898L66.6445 97.218" stroke="black" stroke-width="0.645146" stroke-linecap="round" stroke-linejoin="round"></path>
  <path d="M78.6836 60.0898L78.6836 99.1276" stroke="black" stroke-width="0.645146" stroke-linecap="round" stroke-linejoin="round"></path>
  <path d="M78.6836 60.0898L90.7227 97.218" stroke="black" stroke-width="0.645146" stroke-linecap="round" stroke-linejoin="round"></path>
  <path d="M78.6836 60.0898L101.584 91.6697" stroke="black" stroke-width="0.645146" stroke-linecap="round" stroke-linejoin="round"></path>
  <path d="M78.6836 60.0898L110.204 83.0377" stroke="black" stroke-width="0.645146" stroke-linecap="round" stroke-linejoin="round"></path>
  <path d="M78.6836 60.0898L115.735 72.1541" stroke="black" stroke-width="0.645146" stroke-linecap="round" stroke-linejoin="round"></path>
  <path d="M78.6836 60.0898L117.64 60.0898" stroke="black" stroke-width="0.645146" stroke-linecap="round" stroke-linejoin="round"></path>
  <path d="M78.6836 60.0902L115.735 48.0195" stroke="black" stroke-width="0.645146" stroke-linecap="round" stroke-linejoin="round"></path>
  <path d="M78.6836 60.091L110.204 37.1367" stroke="black" stroke-width="0.645146" stroke-linecap="round" stroke-linejoin="round"></path>
  <path d="M78.6836 60.0941L101.584 28.5078" stroke="black" stroke-width="0.645146" stroke-linecap="round" stroke-linejoin="round"></path>
  <path d="M78.6836 60.0955L90.7227 22.9609" stroke="black" stroke-width="0.645146" stroke-linecap="round" stroke-linejoin="round"></path>
  <path d="M78.6836 60.095L78.6836 21.0508" stroke="black" stroke-width="0.645146" stroke-linecap="round" stroke-linejoin="round"></path>
  <path d="M78.6837 60.0955L66.6445 22.9609" stroke="black" stroke-width="0.645146" stroke-linecap="round" stroke-linejoin="round"></path>
  <path d="M78.6814 60.0902L55.7812 28.5039" stroke="black" stroke-width="0.645146" stroke-linecap="round" stroke-linejoin="round"></path>
  <path d="M78.6808 60.091L47.1602 37.1367" stroke="black" stroke-width="0.645146" stroke-linecap="round" stroke-linejoin="round"></path>
  <path d="M78.6785 60.0902L41.6211 48.0195" stroke="black" stroke-width="0.645146" stroke-linecap="round" stroke-linejoin="round"></path>
  <path d="M78.6804 95.2503C45.7562 95.2503 16.9138 81.1732 0.902344 60.0898C16.9073 95.5922 45.7562 119.295 78.6804 119.295C111.605 119.295 140.447 95.5987 156.458 60.0898C140.453 81.1797 111.605 95.2503 78.6804 95.2503Z" fill="#FF9B50" stroke="black" stroke-width="0.645146" stroke-linecap="round" stroke-linejoin="round"></path>
  <path d="M78.6804 24.9248C111.605 24.9248 140.447 39.0019 156.458 60.0853C140.447 24.5829 111.605 0.886717 78.6804 0.886718C45.7562 0.886718 16.9073 24.5829 0.902345 60.0917C16.9073 39.0019 45.7562 24.9313 78.6804 24.9313L78.6804 24.9248Z" fill="#FF9B50" stroke="black" stroke-width="0.645146" stroke-linecap="round" stroke-linejoin="round"></path>
  <path d="M96.2116 58.3604C102.384 58.3604 107.388 53.3461 107.388 47.1607C107.388 40.9752 102.384 35.9609 96.2116 35.9609C90.039 35.9609 85.0352 40.9752 85.0352 47.1607C85.0352 53.3461 90.039 58.3604 96.2116 58.3604Z" fill="white" stroke="black" stroke-width="0.645146" stroke-linecap="round" stroke-linejoin="round"></path>
</svg>
